<?xml version="1.0" encoding="utf-8"?>
<!-- Generator: Adobe Illustrator 24.2.0, SVG Export Plug-In . SVG Version: 6.00 Build 0)  -->
<svg version="1.1" id="Layer_1" xmlns="http://www.w3.org/2000/svg" xmlns:xlink="http://www.w3.org/1999/xlink" x="0px" y="0px"
	 viewBox="0 0 500 500" style="enable-background:new 0 0 500 500;" xml:space="preserve">
<style type="text/css">
	.st0{fill:#8E8E8E;}
</style>
<path class="st0" d="M332.226,404.174v-51.391c0-2.998-0.964-5.46-2.891-7.388c-1.927-1.927-4.39-2.891-7.387-2.891h-30.835V178.052
	c0-2.998-0.964-5.46-2.891-7.387s-4.39-2.891-7.387-2.891H178.052c-2.998,0-5.46,0.964-7.387,2.891s-2.891,4.39-2.891,7.387v51.391
	c0,2.998,0.964,5.46,2.891,7.387c1.927,1.927,4.39,2.891,7.387,2.891h30.835v102.783h-30.835c-2.998,0-5.46,0.964-7.387,2.891
	c-1.927,1.927-2.891,4.39-2.891,7.388v51.391c0,2.998,0.964,5.46,2.891,7.387c1.927,1.927,4.39,2.891,7.387,2.891h143.896
	c2.998,0,5.46-0.964,7.387-2.891C331.262,409.634,332.226,407.172,332.226,404.174z M291.113,116.383V64.991
	c0-2.998-0.964-5.46-2.891-7.387s-4.39-2.891-7.387-2.891h-61.67c-2.998,0-5.46,0.964-7.387,2.891s-2.891,4.39-2.891,7.387v51.391
	c0,2.998,0.964,5.46,2.891,7.387s4.39,2.891,7.387,2.891h61.67c2.998,0,5.46-0.964,7.387-2.891S291.113,119.381,291.113,116.383z
	 M496.678,250c0,44.753-11.028,86.027-33.083,123.821c-22.055,37.794-51.98,67.719-89.774,89.774
	C336.027,485.65,294.753,496.678,250,496.678s-86.027-11.028-123.821-33.083c-37.794-22.055-67.719-51.98-89.774-89.774
	S3.322,294.753,3.322,250s11.028-86.027,33.083-123.821s51.98-67.719,89.774-89.774S205.247,3.322,250,3.322
	s86.027,11.028,123.821,33.083s67.719,51.98,89.774,89.774C485.65,163.973,496.678,205.247,496.678,250z"/>
</svg>
