<svg xmlns="http://www.w3.org/2000/svg" width="70" height="48.9997" viewBox="0 0 70 48.9997"><path d="M70,39.3142a.14.14,0,0,1-.222.1135L49.2519,24.6133a.14.14,0,0,1,0-.227L69.7778,9.572A.14.14,0,0,1,70,9.6855Zm-70,0a.14.14,0,0,0,.222.1135L20.7481,24.6133a.14.14,0,0,0,0-.227L.2222,9.572A.14.14,0,0,0,0,9.6855ZM67.2,49a2.8,2.8,0,0,0,1.6387-5.07L45.6156,27.1685a.1866.1866,0,0,0-.2185,0l-6.3,4.5473a7,7,0,0,1-8.1932,0l-6.3-4.5473a.1866.1866,0,0,0-.2185,0L1.1615,43.9293A2.8,2.8,0,0,0,2.8,49ZM36.6387,28.31l32.2-23.24A2.8,2.8,0,0,0,67.2,0H2.8A2.8,2.8,0,0,0,1.1615,5.07l32.2,23.24a2.8,2.8,0,0,0,3.2774,0Z" fill="#eb0000"/></svg>