<svg xmlns="http://www.w3.org/2000/svg" width="70" height="47.7262" viewBox="0 0 70 47.7262"><path d="M34.0777,31.3665l-7.0013-4.9858L6.22,43.75a1.5917,1.5917,0,0,1-2.0374-2.4459L24.3976,24.4721,0,7.2275V44.5442a3.1819,3.1819,0,0,0,3.184,3.182H66.8159A3.182,3.182,0,0,0,70,44.5442L69.8831,7.1716l-24.28,17.3005L65.8162,41.3042A1.591,1.591,0,0,1,63.7807,43.75L42.9236,26.3807l-7,4.9858a2.0649,2.0649,0,0,1-1.8457,0Zm.9228-3.247L70,3.182A3.1839,3.1839,0,0,0,66.8159,0H3.184A3.1838,3.1838,0,0,0,0,3.182Z" fill="#0064ba"/></svg>